<svg width="30" height="30" viewBox="0 0 30 30" fill="none" xmlns="http://www.w3.org/2000/svg" fill-rule="evenodd">
<path d="M15.2773 17.834C18.0877 15.7443 21.9123 15.7443 24.7227 17.834L25.2773 18.2656C26.6826 19.3106 28.3412 19.833 30 19.833V30C28.3413 30 26.6826 29.4776 25.2773 28.4326L24.7227 28.001C21.9123 25.9112 18.0877 25.9112 15.2773 28.001L14.7227 28.4326C11.9122 30.5225 8.08776 30.5225 5.27734 28.4326L4.72266 28.001C3.31745 26.9561 1.6587 26.4336 0 26.4336V16.2666C1.65866 16.2666 3.31747 16.7891 4.72266 17.834L5.27734 18.2656C8.0878 20.3556 11.9122 20.3556 14.7227 18.2656L15.2773 17.834Z" fill="currentColor"/>
<path d="M15.2773 1.56739C18.0878 -0.522458 21.9122 -0.52247 24.7227 1.56739L25.2773 1.99903C26.6825 3.04395 28.3413 3.56642 30 3.56642V13.7334C28.3413 13.7334 26.6825 13.2109 25.2773 12.166L24.7227 11.7344C21.9122 9.64443 18.0878 9.64444 15.2773 11.7344L14.7227 12.166C11.9123 14.2558 8.08771 14.2558 5.27734 12.166L4.72266 11.7344C3.31743 10.6894 1.65875 10.167 0 10.167V1.00165e-05C1.65871 1.05643e-05 3.31745 0.522465 4.72266 1.56739L5.27734 1.99903C8.08775 4.08886 11.9123 4.08887 14.7227 1.99903L15.2773 1.56739Z" fill="currentColor"/>
</svg>
